<mxfile host="Electron" agent="Mozilla/5.0 (Windows NT 10.0; Win64; x64) AppleWebKit/537.36 (KHTML, like Gecko) draw.io/24.7.17 Chrome/128.0.6613.36 Electron/32.0.1 Safari/537.36" compressed="false" version="24.7.17">
  <diagram id="1IEk_Nb3fTFsxIXIZDjR" name="Page-1">
    <mxGraphModel dx="1585" dy="1083" grid="1" gridSize="10" guides="1" tooltips="1" connect="1" arrows="1" fold="1" page="0" pageScale="1" pageWidth="1200" pageHeight="1920" math="1" shadow="0">
      <root>
        <mxCell id="0" />
        <mxCell id="1" parent="0" />
        <mxCell id="jQUNtxt3wSmO4l-g8oJK-2" style="rounded=0;orthogonalLoop=1;jettySize=auto;html=1;" edge="1" parent="1" source="jQUNtxt3wSmO4l-g8oJK-5" target="jQUNtxt3wSmO4l-g8oJK-3">
          <mxGeometry relative="1" as="geometry">
            <mxPoint x="20" y="-70" as="sourcePoint" />
            <mxPoint x="74" y="-27" as="targetPoint" />
          </mxGeometry>
        </mxCell>
        <mxCell id="jQUNtxt3wSmO4l-g8oJK-3" value="Start" style="rounded=1;whiteSpace=wrap;html=1;verticalAlign=top;" vertex="1" parent="1">
          <mxGeometry x="160" y="-160" width="120" height="80" as="geometry" />
        </mxCell>
        <mxCell id="jQUNtxt3wSmO4l-g8oJK-4" value="lt = None&lt;div style=&quot;font-size: 10px;&quot;&gt;avg = None&lt;/div&gt;&lt;div style=&quot;font-size: 10px;&quot;&gt;temp = None&lt;/div&gt;" style="text;html=1;align=left;verticalAlign=middle;whiteSpace=wrap;rounded=0;fontSize=10;" vertex="1" parent="1">
          <mxGeometry x="160" y="-135" width="120" height="55" as="geometry" />
        </mxCell>
        <mxCell id="jQUNtxt3wSmO4l-g8oJK-5" value="" style="ellipse;whiteSpace=wrap;html=1;aspect=fixed;fillColor=#000000;" vertex="1" parent="1">
          <mxGeometry x="210" y="-220" width="20" height="20" as="geometry" />
        </mxCell>
        <mxCell id="jQUNtxt3wSmO4l-g8oJK-6" value="&amp;lt;nt, ntemp&amp;gt;&amp;nbsp;&lt;div&gt;/ lt = nt&amp;nbsp;&lt;/div&gt;&lt;div&gt;temp=ntemp&amp;nbsp;&lt;/div&gt;" style="rounded=0;orthogonalLoop=1;jettySize=auto;html=1;" edge="1" parent="1" source="jQUNtxt3wSmO4l-g8oJK-3" target="jQUNtxt3wSmO4l-g8oJK-7">
          <mxGeometry relative="1" as="geometry">
            <mxPoint x="370" y="-107.74" as="sourcePoint" />
            <mxPoint x="480" y="-120" as="targetPoint" />
          </mxGeometry>
        </mxCell>
        <mxCell id="jQUNtxt3wSmO4l-g8oJK-7" value="TempDefined" style="rounded=1;whiteSpace=wrap;html=1;verticalAlign=top;" vertex="1" parent="1">
          <mxGeometry x="360" width="120" height="80" as="geometry" />
        </mxCell>
        <mxCell id="jQUNtxt3wSmO4l-g8oJK-8" value="&lt;div style=&quot;font-size: 10px;&quot;&gt;avg = None&lt;/div&gt;&lt;div style=&quot;font-size: 10px;&quot;&gt;temp defined&lt;/div&gt;" style="text;html=1;align=left;verticalAlign=middle;whiteSpace=wrap;rounded=0;fontSize=10;" vertex="1" parent="1">
          <mxGeometry x="360" y="25" width="120" height="55" as="geometry" />
        </mxCell>
        <mxCell id="jQUNtxt3wSmO4l-g8oJK-9" value="AvgDefined" style="rounded=1;whiteSpace=wrap;html=1;verticalAlign=top;" vertex="1" parent="1">
          <mxGeometry x="-40" width="120" height="80" as="geometry" />
        </mxCell>
        <mxCell id="jQUNtxt3wSmO4l-g8oJK-10" value="lt = nt&lt;div style=&quot;font-size: 10px;&quot;&gt;avg = navg&lt;/div&gt;&lt;div style=&quot;font-size: 10px;&quot;&gt;temp = None&lt;/div&gt;" style="text;html=1;align=left;verticalAlign=middle;whiteSpace=wrap;rounded=0;fontSize=10;" vertex="1" parent="1">
          <mxGeometry x="-40" y="25" width="120" height="55" as="geometry" />
        </mxCell>
        <mxCell id="jQUNtxt3wSmO4l-g8oJK-12" value="&amp;lt;nt, navg&amp;gt; /&lt;div&gt;lt = nt&lt;/div&gt;&lt;div&gt;avg = navg&lt;/div&gt;" style="rounded=0;orthogonalLoop=1;jettySize=auto;html=1;" edge="1" parent="1" source="jQUNtxt3wSmO4l-g8oJK-3" target="jQUNtxt3wSmO4l-g8oJK-9">
          <mxGeometry relative="1" as="geometry">
            <mxPoint x="370" y="-107.74" as="sourcePoint" />
            <mxPoint x="480" y="-120" as="targetPoint" />
          </mxGeometry>
        </mxCell>
        <mxCell id="jQUNtxt3wSmO4l-g8oJK-13" value="&amp;lt;nt, _&amp;gt; [nt &amp;lt; lt]" style="rounded=0;orthogonalLoop=1;jettySize=auto;html=1;" edge="1" parent="1" source="jQUNtxt3wSmO4l-g8oJK-7" target="jQUNtxt3wSmO4l-g8oJK-7">
          <mxGeometry x="-0.2667" relative="1" as="geometry">
            <mxPoint x="280" y="-70" as="sourcePoint" />
            <mxPoint x="530" y="20" as="targetPoint" />
            <Array as="points">
              <mxPoint x="420" y="-60" />
              <mxPoint x="560" y="-60" />
              <mxPoint x="560" y="40" />
            </Array>
            <mxPoint as="offset" />
          </mxGeometry>
        </mxCell>
        <mxCell id="jQUNtxt3wSmO4l-g8oJK-14" value="&amp;lt;nt, ntemp&amp;gt; [nt = lt]" style="rounded=0;orthogonalLoop=1;jettySize=auto;html=1;" edge="1" parent="1" source="jQUNtxt3wSmO4l-g8oJK-7" target="jQUNtxt3wSmO4l-g8oJK-7">
          <mxGeometry x="-0.3158" relative="1" as="geometry">
            <mxPoint x="600" y="110" as="sourcePoint" />
            <mxPoint x="660" y="150" as="targetPoint" />
            <Array as="points">
              <mxPoint x="420" y="140" />
              <mxPoint x="560" y="140" />
              <mxPoint x="560" y="40" />
            </Array>
            <mxPoint as="offset" />
          </mxGeometry>
        </mxCell>
        <mxCell id="jQUNtxt3wSmO4l-g8oJK-19" style="edgeStyle=orthogonalEdgeStyle;rounded=0;orthogonalLoop=1;jettySize=auto;html=1;" edge="1" parent="1" source="jQUNtxt3wSmO4l-g8oJK-15" target="jQUNtxt3wSmO4l-g8oJK-18">
          <mxGeometry relative="1" as="geometry" />
        </mxCell>
        <mxCell id="jQUNtxt3wSmO4l-g8oJK-15" value="TempAvgMatch" style="rounded=1;whiteSpace=wrap;html=1;verticalAlign=top;" vertex="1" parent="1">
          <mxGeometry x="160" y="240" width="120" height="80" as="geometry" />
        </mxCell>
        <mxCell id="jQUNtxt3wSmO4l-g8oJK-16" value="&lt;div style=&quot;font-size: 10px;&quot;&gt;avg defined&lt;/div&gt;&lt;div style=&quot;font-size: 10px;&quot;&gt;temp defined&lt;/div&gt;" style="text;html=1;align=left;verticalAlign=middle;whiteSpace=wrap;rounded=0;fontSize=10;" vertex="1" parent="1">
          <mxGeometry x="160" y="265" width="120" height="55" as="geometry" />
        </mxCell>
        <mxCell id="jQUNtxt3wSmO4l-g8oJK-17" value="&amp;lt;nt, navg&amp;gt; [nt = lt]&lt;div&gt;/ avg = navg&lt;/div&gt;" style="rounded=0;orthogonalLoop=1;jettySize=auto;html=1;" edge="1" parent="1" source="jQUNtxt3wSmO4l-g8oJK-7" target="jQUNtxt3wSmO4l-g8oJK-15">
          <mxGeometry x="-0.1352" y="1" relative="1" as="geometry">
            <mxPoint x="280" y="-70" as="sourcePoint" />
            <mxPoint x="380" y="10" as="targetPoint" />
            <mxPoint as="offset" />
          </mxGeometry>
        </mxCell>
        <mxCell id="jQUNtxt3wSmO4l-g8oJK-20" value="/ lt = None&lt;div&gt;avg = None&lt;/div&gt;&lt;div&gt;temp = None&lt;/div&gt;" style="edgeStyle=orthogonalEdgeStyle;rounded=0;orthogonalLoop=1;jettySize=auto;html=1;" edge="1" parent="1" source="jQUNtxt3wSmO4l-g8oJK-18" target="jQUNtxt3wSmO4l-g8oJK-3">
          <mxGeometry x="0.6" relative="1" as="geometry">
            <mxPoint as="offset" />
          </mxGeometry>
        </mxCell>
        <mxCell id="jQUNtxt3wSmO4l-g8oJK-18" value="Compute stuff" style="rounded=1;whiteSpace=wrap;html=1;verticalAlign=top;" vertex="1" parent="1">
          <mxGeometry x="160" y="120" width="120" height="40" as="geometry" />
        </mxCell>
        <mxCell id="jQUNtxt3wSmO4l-g8oJK-21" value="&amp;lt;nt, navg&amp;gt; [nt &amp;gt; lt]&amp;nbsp;&lt;div&gt;/ temp=None&lt;/div&gt;&lt;div&gt;avg = navg&amp;nbsp;&lt;/div&gt;" style="rounded=0;orthogonalLoop=1;jettySize=auto;html=1;" edge="1" parent="1" source="jQUNtxt3wSmO4l-g8oJK-7" target="jQUNtxt3wSmO4l-g8oJK-9">
          <mxGeometry x="-0.4808" y="14" relative="1" as="geometry">
            <mxPoint x="280" y="-70" as="sourcePoint" />
            <mxPoint x="380" y="10" as="targetPoint" />
            <Array as="points">
              <mxPoint x="220" y="80" />
            </Array>
            <mxPoint as="offset" />
          </mxGeometry>
        </mxCell>
        <mxCell id="jQUNtxt3wSmO4l-g8oJK-22" value="&amp;lt;nt, ntemp&amp;gt; [nt &amp;gt; lt] / temp = ntemp" style="rounded=0;orthogonalLoop=1;jettySize=auto;html=1;" edge="1" parent="1" source="jQUNtxt3wSmO4l-g8oJK-8" target="jQUNtxt3wSmO4l-g8oJK-7">
          <mxGeometry x="0.12" y="10" relative="1" as="geometry">
            <mxPoint x="430" y="90" as="sourcePoint" />
            <mxPoint x="490" y="50" as="targetPoint" />
            <Array as="points">
              <mxPoint x="420" y="200" />
              <mxPoint x="560" y="200" />
              <mxPoint x="560" y="40" />
            </Array>
            <mxPoint as="offset" />
          </mxGeometry>
        </mxCell>
        <mxCell id="jQUNtxt3wSmO4l-g8oJK-23" value="&amp;lt;nt, _&amp;gt; [nt &amp;lt; lt]" style="rounded=0;orthogonalLoop=1;jettySize=auto;html=1;" edge="1" parent="1" source="jQUNtxt3wSmO4l-g8oJK-9" target="jQUNtxt3wSmO4l-g8oJK-9">
          <mxGeometry x="-0.2667" relative="1" as="geometry">
            <mxPoint x="-230" y="-15" as="sourcePoint" />
            <mxPoint x="-70" as="targetPoint" />
            <Array as="points">
              <mxPoint x="20" y="-80" />
              <mxPoint x="-120" y="-80" />
              <mxPoint x="-120" y="40" />
            </Array>
            <mxPoint as="offset" />
          </mxGeometry>
        </mxCell>
        <mxCell id="jQUNtxt3wSmO4l-g8oJK-24" value="&amp;lt;nt, navg&amp;gt; [nt = lt]" style="rounded=0;orthogonalLoop=1;jettySize=auto;html=1;" edge="1" parent="1" source="jQUNtxt3wSmO4l-g8oJK-9" target="jQUNtxt3wSmO4l-g8oJK-9">
          <mxGeometry x="-0.2667" relative="1" as="geometry">
            <mxPoint x="30" y="10" as="sourcePoint" />
            <mxPoint x="-30" y="50" as="targetPoint" />
            <Array as="points">
              <mxPoint x="20" y="140" />
              <mxPoint x="-120" y="140" />
              <mxPoint x="-120" y="40" />
            </Array>
            <mxPoint as="offset" />
          </mxGeometry>
        </mxCell>
        <mxCell id="jQUNtxt3wSmO4l-g8oJK-25" value="&amp;lt;nt, navg&amp;gt; [nt &amp;gt; lt] / avg = navg" style="rounded=0;orthogonalLoop=1;jettySize=auto;html=1;" edge="1" parent="1" source="jQUNtxt3wSmO4l-g8oJK-9" target="jQUNtxt3wSmO4l-g8oJK-9">
          <mxGeometry x="0.12" y="-20" relative="1" as="geometry">
            <mxPoint x="30" y="90" as="sourcePoint" />
            <mxPoint x="-30" y="50" as="targetPoint" />
            <Array as="points">
              <mxPoint x="20" y="200" />
              <mxPoint x="-120" y="200" />
              <mxPoint x="-120" y="40" />
            </Array>
            <mxPoint as="offset" />
          </mxGeometry>
        </mxCell>
        <mxCell id="jQUNtxt3wSmO4l-g8oJK-26" value="&amp;lt;nt, ntemp&amp;gt; [nt &amp;gt; lt]&amp;nbsp;&lt;div&gt;/ temp=ntemp&lt;/div&gt;&lt;div&gt;avg = None&lt;/div&gt;" style="rounded=0;orthogonalLoop=1;jettySize=auto;html=1;" edge="1" parent="1" source="jQUNtxt3wSmO4l-g8oJK-9" target="jQUNtxt3wSmO4l-g8oJK-7">
          <mxGeometry x="-0.5762" y="8" relative="1" as="geometry">
            <mxPoint x="370" y="63" as="sourcePoint" />
            <mxPoint x="130" y="63" as="targetPoint" />
            <Array as="points">
              <mxPoint x="220" y="20" />
            </Array>
            <mxPoint as="offset" />
          </mxGeometry>
        </mxCell>
        <mxCell id="jQUNtxt3wSmO4l-g8oJK-27" value="&amp;lt;nt, ntemp&amp;gt; [nt = lt]&lt;div&gt;/ temp = ntemp&lt;/div&gt;" style="rounded=0;orthogonalLoop=1;jettySize=auto;html=1;" edge="1" parent="1" source="jQUNtxt3wSmO4l-g8oJK-9" target="jQUNtxt3wSmO4l-g8oJK-15">
          <mxGeometry x="-0.1967" y="-9" relative="1" as="geometry">
            <mxPoint x="280" y="-70" as="sourcePoint" />
            <mxPoint x="380" y="10" as="targetPoint" />
            <mxPoint as="offset" />
          </mxGeometry>
        </mxCell>
      </root>
    </mxGraphModel>
  </diagram>
</mxfile>
